<?xml version="1.0" encoding="UTF-8"?>
<svg id="Layer_2" data-name="Layer 2" xmlns="http://www.w3.org/2000/svg" viewBox="0 0 512 512">
  <defs>
    <style>
      .cls-1 {
        fill: #fff;
      }
    </style>
  </defs>
  <g id="Layer_1-2" data-name="Layer 1">
    <g>
      <path class="cls-1" d="M512,512H0V0c170.67,0,341.33,0,512,0V512Zm-50.7-399.35c2.65,3.4,4.93,6.14,6.99,9,7.92,10.98,11.36,22.88,9.36,35.53-2.14,13.54-8.81,25.78-17.37,37.4-1.75,2.38-3.68,2.66-6.65,2.25-23.71-3.24-47.6,11.35-46.15,34.93,1.27,20.57,22.25,32.34,44.83,29.72,29.19-3.38,44.23-31.18,27.04-50.83-1.64-1.87-1.49-3.06-.18-4.97,4.25-6.18,8.54-12.39,12.15-18.83,10.16-18.15,13.31-36.98,6.85-56.53-3.73-11.29-11.16-20.93-20.09-29.83-2.09-2.08-2-3.37,.11-5.33,3.14-2.91,5.93-6.08,8.72-9.23,10.55-11.89,17-24.74,13.82-39.89-3.53-16.81-14.67-28.9-33.83-35.14-19.2-6.25-37.4-3.35-53.03,7.55-8.53,5.94-15.95,13.02-23.45,19.89-26.08,23.89-52.02,47.88-77.95,71.89-20.16,18.67-40.25,37.39-60.28,56.15-16.9,15.83-33.66,31.76-50.52,47.61-3.34,3.14-4.26,6.78-3.04,10.6,.79,2.47-.07,3.6-2.53,4.77-16.72,7.94-33.34,16.02-50.06,23.96-3.67,1.74-5.86,3.98-6.37,7.56-2,14.03-3.9,28.07-6.35,42.05-4.63,26.41-11.5,52.4-22.22,77.64-.73,1.72-1.15,3.75-.83,5.53,1.11,6.17,7.83,9.44,14.7,6.72,9.34-3.7,18.25-8.14,27.43-12.15,32.71-14.29,67.25-24.89,102.44-34.08,7.01-1.83,11.28-4.86,13.59-10.58,6.17-15.26,12.84-30.38,18.97-45.65,1.18-2.95,2.94-3.34,5.86-2.65,5.61,1.32,9.71-.42,13.01-4.09,9.09-10.12,18.18-20.24,27.34-30.32,24.23-26.68,48.49-53.34,72.73-80.01,18.15-19.98,36.28-39.98,54.99-60.61Zm-178.48,350.55c0,2.28,.1,4.85-.02,7.41-.53,11.77,5.88,20.56,17.21,27.16,14.37,8.36,30.59,8.8,47.05,6.57,26.35-3.57,50.9-11.37,73.6-22.97,12.16-6.22,24.62-12.14,34.65-20.78,4.15-3.58,4.39-8.15,.86-11.79-3.89-4-9.03-4.85-14.35-2.31-1.4,.67-2.75,1.43-3.99,2.29-17.87,12.32-37.71,21.9-59.45,28.74-16.57,5.21-33.46,9.43-51.54,8.34-11.42-.69-20.09-6.18-20.65-15.86-.24-4.22-.08-8.48,.42-12.68,.14-1.22,1.78-2.8,3.22-3.37,18.29-7.31,35.43-16.15,51.62-26.25,25.85-16.13,48.9-34.56,66.96-56.91,9.43-11.68,16.66-24.14,18.14-38.43,1.46-14.04-8.57-24.74-25.16-26.88-10.39-1.34-19.77,1.24-28.72,5.08-15.5,6.63-27.38,16.72-37.19,28.35-25.33,30.05-45.29,62.61-63.98,95.69-2.65,4.7-5.87,7.18-11.65,8.87-25.92,7.58-50.71,6.6-74.7-5.08-7.52-3.66-15.54-6.66-23.48-9.7-14.92-5.72-30.28-7.83-46.27-3.09-13.61,4.03-25.63,10.02-34.54,19.59-3.9,4.19-3.22,8.56,1.17,12,4.47,3.49,9.2,3.31,14.87-.4,4.65-3.04,9.31-6.1,14.18-8.9,13.57-7.8,27.75-6.77,41.85-1.29,9.62,3.74,18.82,8.21,28.41,12.01,16.04,6.36,32.82,10.28,50.84,8.47,10.12-1.02,20.17-2.54,30.63-3.88ZM12,324.48c-.16,2.25,1.78,3.46,4.85,3.85,5.32,.68,10.66,1.32,15.97,2.07,17.92,2.53,28.6,10.73,32,24.98,1.51,6.32,2.29,12.76,3.43,19.14,.43,2.41,1.89,4.42,4.98,4.57,3.28,.17,5.2-1.75,5.9-4.23,.88-3.13,1.35-6.33,2.17-9.48,1.63-6.27,2.56-12.76,5.28-18.7,3.87-8.47,13-12.77,22.64-16.19,3.81-1.35,7.72-2.64,7.45-6.88-.27-4.16-4.48-4.92-8.16-5.93-8.82-2.42-15.66-6.86-20.56-13.35-5.03-6.67-5.48-14.29-6.72-21.77-.69-4.16-1.69-8.32-3.13-12.33-.43-1.2-2.93-2.76-4.31-2.65-1.67,.13-3.34,1.72-4.64,2.95-.7,.66-.71,1.87-.88,2.85-1.1,6.39-2.01,12.8-3.28,19.17-2.47,12.34-11.69,20.54-26.39,23.2-6.57,1.19-13.3,1.74-19.96,2.56-4.34,.54-6.59,2.44-6.63,6.16Z"/>
      <path d="M461.3,112.65c-18.72,20.63-36.84,40.63-54.99,60.61-24.23,26.68-48.5,53.33-72.73,80.01-9.15,10.08-18.25,20.2-27.34,30.32-3.3,3.67-7.39,5.41-13.01,4.09-2.92-.69-4.68-.3-5.86,2.65-6.13,15.27-12.81,30.39-18.97,45.65-2.31,5.72-6.59,8.75-13.59,10.58-35.19,9.19-69.73,19.79-102.44,34.08-9.17,4.01-18.08,8.44-27.43,12.15-6.87,2.73-13.59-.55-14.7-6.72-.32-1.78,.1-3.81,.83-5.53,10.72-25.24,17.59-51.23,22.22-77.64,2.45-13.98,4.35-28.02,6.35-42.05,.51-3.58,2.71-5.82,6.37-7.56,16.72-7.94,33.35-16.02,50.06-23.96,2.46-1.17,3.32-2.3,2.53-4.77-1.21-3.82-.29-7.46,3.04-10.6,16.87-15.85,33.62-31.78,50.52-47.61,20.03-18.76,40.13-37.48,60.28-56.15,25.92-24.01,51.86-48,77.95-71.89,7.51-6.87,14.93-13.95,23.45-19.89,15.63-10.89,33.83-13.79,53.03-7.55,19.16,6.24,30.31,18.33,33.83,35.14,3.18,15.15-3.27,28.01-13.82,39.89-2.79,3.15-5.59,6.32-8.72,9.23-2.11,1.96-2.2,3.25-.11,5.33,8.93,8.9,16.36,18.54,20.09,29.83,6.47,19.55,3.31,38.38-6.85,56.53-3.61,6.45-7.89,12.65-12.15,18.83-1.31,1.91-1.46,3.1,.18,4.97,17.19,19.65,2.15,47.45-27.04,50.83-22.57,2.62-43.56-9.15-44.83-29.72-1.45-23.58,22.44-38.17,46.15-34.93,2.97,.41,4.9,.13,6.65-2.25,8.56-11.61,15.23-23.86,17.37-37.4,2-12.65-1.45-24.56-9.36-35.53-2.06-2.85-4.34-5.6-6.99-9Zm-168.99,152.41c3.74-4.06,7.27-7.84,10.75-11.67,31.7-34.86,63.34-69.76,95.1-104.58,16.25-17.81,32.79-35.45,49.04-53.26,8.27-9.08,16.49-18.21,24.16-27.63,5.49-6.75,6.81-14.4,4.03-22.37-4.32-12.39-17.61-19.66-32.35-17.32-9.84,1.56-17.29,6.51-23.78,12.55-14.63,13.61-29.28,27.21-43.95,40.8-17.46,16.17-35.05,32.24-52.41,48.48-14.67,13.73-29,27.7-43.65,41.44-17.25,16.18-34.68,32.22-52.01,48.33-.67,.62-1.12,1.41-1.76,2.23,22.32,14.36,44.36,28.54,66.84,43Zm-75.94-23.97c-1.19,.68-1.94,1.16-2.74,1.55-17.17,8.4-34.38,16.75-51.48,25.25-1.58,.78-3.26,2.43-3.51,3.84-.89,5.06-1.22,10.19-1.72,15.3-1.63,16.99-4.96,33.77-9.53,50.38-1.57,5.7-3.06,11.42-4.59,17.13,1.28-.45,1.95-1.1,2.58-1.79,12.89-14.04,25.72-28.12,38.73-42.09,2.03-2.18,3.41-3.95,2.81-7.04-1.1-5.65,4.18-10.81,10.69-11.41,7.04-.65,13.38,2.99,14.49,8.32,1.25,5.97-2.95,11.64-9.42,13.13-1.75,.4-3.69,1.3-4.77,2.46-11.88,12.72-23.62,25.52-35.38,38.32-1.12,1.22-2.13,2.52-3.43,4.06,.91,0,1.06,.04,1.17,0,27.46-10.88,55.53-20.53,84.54-28.26,1.42-.38,3-1.67,3.51-2.84,7.14-16.51,14.07-33.09,21.14-49.62,.77-1.81,.22-2.83-1.6-3.92-4.26-2.56-8.35-5.31-12.52-7.97-12.94-8.24-25.89-16.47-38.97-24.79Zm230.56,2.3c10.17,.01,17.93-6.18,17.94-14.3,0-8.1-7.61-14.6-17.15-14.64-10.03-.04-17.77,6.23-17.79,14.4-.02,8.42,7.12,14.52,17.01,14.54Z"/>
      <path d="M282.82,463.2c-10.46,1.34-20.5,2.87-30.63,3.88-18.02,1.81-34.8-2.11-50.84-8.47-9.59-3.8-18.79-8.28-28.41-12.01-14.11-5.48-28.29-6.51-41.85,1.29-4.87,2.8-9.53,5.85-14.18,8.9-5.67,3.71-10.4,3.89-14.87,.4-4.39-3.43-5.07-7.8-1.17-12,8.91-9.58,20.94-15.56,34.54-19.59,15.99-4.74,31.35-2.63,46.27,3.09,7.94,3.04,15.96,6.04,23.48,9.7,23.99,11.68,48.78,12.66,74.7,5.08,5.79-1.69,9-4.18,11.65-8.87,18.69-33.08,38.65-65.64,63.98-95.69,9.81-11.64,21.69-21.72,37.19-28.35,8.95-3.83,18.33-6.41,28.72-5.08,16.58,2.13,26.61,12.84,25.16,26.88-1.48,14.29-8.71,26.76-18.14,38.43-18.06,22.35-41.11,40.78-66.96,56.91-16.18,10.1-33.33,18.94-51.62,26.25-1.44,.58-3.08,2.15-3.22,3.37-.5,4.2-.66,8.46-.42,12.68,.56,9.68,9.23,15.17,20.65,15.86,18.09,1.09,34.97-3.13,51.54-8.34,21.74-6.84,41.57-16.42,59.45-28.74,1.24-.85,2.59-1.62,3.99-2.29,5.32-2.54,10.45-1.69,14.35,2.31,3.53,3.63,3.29,8.21-.86,11.79-10.03,8.64-22.49,14.56-34.65,20.78-22.7,11.6-47.24,19.4-73.6,22.97-16.46,2.23-32.68,1.79-47.05-6.57-11.32-6.59-17.74-15.39-17.21-27.16,.12-2.56,.02-5.12,.02-7.41Zm35.08-34.51c.23,.16,.47,.32,.7,.48,1.4-.65,2.88-1.2,4.19-1.95,20.2-11.74,40.76-23.09,58.11-37.85,10.95-9.31,21.24-19.02,29.48-30.1,6.02-8.1,10.24-16.84,12.75-26.11,1.58-5.83-1.65-9.17-8.87-8.8-8.92,.46-15.96,4.46-22.5,9.01-13.94,9.71-24.03,22.02-33.04,34.85-10.18,14.51-19.36,29.51-29.13,44.22-3.66,5.52-7.78,10.83-11.69,16.24Z"/>
      <path d="M12,324.48c.04-3.72,2.29-5.62,6.63-6.16,6.66-.83,13.4-1.38,19.96-2.56,14.7-2.66,23.92-10.85,26.39-23.2,1.27-6.36,2.17-12.78,3.28-19.17,.17-.98,.18-2.19,.88-2.85,1.3-1.23,2.97-2.81,4.64-2.95,1.38-.11,3.88,1.45,4.31,2.65,1.44,4.02,2.44,8.17,3.13,12.33,1.25,7.48,1.7,15.1,6.72,21.77,4.89,6.49,11.74,10.93,20.56,13.35,3.68,1.01,7.88,1.77,8.16,5.93,.28,4.24-3.64,5.53-7.45,6.88-9.64,3.41-18.77,7.71-22.64,16.19-2.71,5.94-3.64,12.44-5.28,18.7-.82,3.14-1.28,6.35-2.17,9.48-.7,2.48-2.62,4.4-5.9,4.23-3.09-.16-4.55-2.16-4.98-4.57-1.14-6.38-1.92-12.82-3.43-19.14-3.4-14.25-14.07-22.45-32-24.98-5.31-.75-10.64-1.39-15.97-2.07-3.07-.39-5.01-1.6-4.85-3.85Z"/>
      <path class="cls-1" d="M292.31,265.06c-22.48-14.46-44.52-28.64-66.84-43,.65-.83,1.09-1.61,1.76-2.23,17.33-16.11,34.76-32.16,52.01-48.33,14.65-13.74,28.98-27.71,43.65-41.44,17.36-16.24,34.95-32.32,52.41-48.48,14.67-13.58,29.32-27.19,43.95-40.8,6.5-6.04,13.95-10.99,23.78-12.55,14.74-2.33,28.03,4.93,32.35,17.32,2.78,7.96,1.46,15.62-4.03,22.37-7.67,9.42-15.88,18.56-24.16,27.63-16.25,17.82-32.79,35.45-49.04,53.26-31.76,34.82-63.4,69.72-95.1,104.58-3.48,3.82-7.01,7.61-10.75,11.67Z"/>
      <path class="cls-1" d="M216.37,241.08c13.08,8.32,26.03,16.55,38.97,24.79,4.17,2.66,8.26,5.41,12.52,7.97,1.82,1.09,2.37,2.12,1.6,3.92-7.06,16.54-14,33.11-21.14,49.62-.5,1.16-2.09,2.46-3.51,2.84-29.01,7.74-57.08,17.38-84.54,28.26-.11,.04-.26,0-1.17,0,1.3-1.54,2.31-2.84,3.43-4.06,11.76-12.79,23.5-25.6,35.38-38.32,1.08-1.16,3.02-2.06,4.77-2.46,6.46-1.48,10.67-7.16,9.42-13.13-1.12-5.33-7.45-8.96-14.49-8.32-6.52,.6-11.79,5.76-10.69,11.41,.6,3.09-.78,4.86-2.81,7.04-13,13.97-25.84,28.05-38.73,42.09-.63,.68-1.3,1.34-2.58,1.79,1.53-5.71,3.03-11.42,4.59-17.13,4.56-16.62,7.89-33.39,9.53-50.38,.49-5.11,.82-10.24,1.72-15.3,.25-1.41,1.93-3.05,3.51-3.84,17.1-8.5,34.31-16.85,51.48-25.25,.81-.4,1.55-.88,2.74-1.55Z"/>
      <path class="cls-1" d="M446.93,243.38c-9.89-.01-17.03-6.12-17.01-14.54,.02-8.18,7.76-14.44,17.79-14.4,9.54,.04,17.15,6.53,17.15,14.64,0,8.13-7.77,14.32-17.94,14.3Z"/>
      <path class="cls-1" d="M317.9,428.69c3.91-5.41,8.03-10.72,11.69-16.24,9.77-14.71,18.94-29.71,29.13-44.22,9-12.83,19.1-25.15,33.04-34.85,6.53-4.55,13.58-8.56,22.5-9.01,7.21-.37,10.45,2.97,8.87,8.8-2.51,9.28-6.73,18.01-12.75,26.11-8.23,11.08-18.53,20.78-29.48,30.1-17.35,14.76-37.91,26.1-58.11,37.85-1.3,.76-2.79,1.31-4.19,1.95-.23-.16-.47-.32-.7-.48Z"/>
    </g>
  </g>
</svg>